G04 MADE WITH FRITZING*
G04 WWW.FRITZING.ORG*
G04 DOUBLE SIDED*
G04 HOLES PLATED*
G04 CONTOUR ON CENTER OF CONTOUR VECTOR*
%ASAXBY*%
%FSLAX23Y23*%
%MOIN*%
%OFA0B0*%
%SFA1.0B1.0*%
%ADD10R,0.074803X0.062992*%
%ADD11R,0.062992X0.074803*%
%ADD12R,0.001000X0.001000*%
%LNPASTEMASK1*%
G90*
G70*
G54D10*
X409Y1303D03*
X409Y1181D03*
G54D11*
X609Y103D03*
X731Y103D03*
G36*
X372Y435D02*
X447Y435D01*
X447Y372D01*
X372Y372D01*
X372Y435D01*
G37*
D02*
G36*
X372Y557D02*
X447Y557D01*
X447Y494D01*
X372Y494D01*
X372Y557D01*
G37*
D02*
G36*
X447Y772D02*
X372Y772D01*
X372Y835D01*
X447Y835D01*
X447Y772D01*
G37*
D02*
G36*
X447Y649D02*
X372Y649D01*
X372Y712D01*
X447Y712D01*
X447Y649D01*
G37*
D02*
G36*
X372Y935D02*
X447Y935D01*
X447Y872D01*
X372Y872D01*
X372Y935D01*
G37*
D02*
G36*
X372Y1057D02*
X447Y1057D01*
X447Y994D01*
X372Y994D01*
X372Y1057D01*
G37*
D02*
G36*
X572Y435D02*
X647Y435D01*
X647Y372D01*
X572Y372D01*
X572Y435D01*
G37*
D02*
G36*
X572Y557D02*
X647Y557D01*
X647Y494D01*
X572Y494D01*
X572Y557D01*
G37*
D02*
G36*
X472Y435D02*
X547Y435D01*
X547Y372D01*
X472Y372D01*
X472Y435D01*
G37*
D02*
G36*
X472Y557D02*
X547Y557D01*
X547Y494D01*
X472Y494D01*
X472Y557D01*
G37*
D02*
G36*
X2172Y435D02*
X2247Y435D01*
X2247Y372D01*
X2172Y372D01*
X2172Y435D01*
G37*
D02*
G36*
X2172Y557D02*
X2247Y557D01*
X2247Y494D01*
X2172Y494D01*
X2172Y557D01*
G37*
D02*
G36*
X2247Y772D02*
X2172Y772D01*
X2172Y835D01*
X2247Y835D01*
X2247Y772D01*
G37*
D02*
G36*
X2247Y649D02*
X2172Y649D01*
X2172Y712D01*
X2247Y712D01*
X2247Y649D01*
G37*
D02*
G36*
X978Y66D02*
X978Y140D01*
X1041Y140D01*
X1041Y66D01*
X978Y66D01*
G37*
D02*
G36*
X856Y66D02*
X856Y140D01*
X919Y140D01*
X919Y66D01*
X856Y66D01*
G37*
D02*
G36*
X1372Y235D02*
X1447Y235D01*
X1447Y172D01*
X1372Y172D01*
X1372Y235D01*
G37*
D02*
G36*
X1372Y357D02*
X1447Y357D01*
X1447Y294D01*
X1372Y294D01*
X1372Y357D01*
G37*
D02*
G36*
X1447Y572D02*
X1372Y572D01*
X1372Y635D01*
X1447Y635D01*
X1447Y572D01*
G37*
D02*
G36*
X1447Y449D02*
X1372Y449D01*
X1372Y512D01*
X1447Y512D01*
X1447Y449D01*
G37*
D02*
G36*
X1647Y572D02*
X1572Y572D01*
X1572Y635D01*
X1647Y635D01*
X1647Y572D01*
G37*
D02*
G36*
X1647Y449D02*
X1572Y449D01*
X1572Y512D01*
X1647Y512D01*
X1647Y449D01*
G37*
D02*
G36*
X1572Y235D02*
X1647Y235D01*
X1647Y172D01*
X1572Y172D01*
X1572Y235D01*
G37*
D02*
G36*
X1572Y357D02*
X1647Y357D01*
X1647Y294D01*
X1572Y294D01*
X1572Y357D01*
G37*
D02*
G54D12*
D02*
G04 End of PasteMask1*
M02*