; NON-PLATED HOLES START AT T1
; THROUGH (PLATED) HOLES START AT T100
M48
INCH
T100C0.038361
T101C0.015748
T102C0.039370
T103C0.038333
T104C0.027559
T105C0.038306
%
T100
X026079Y010072
X025079Y011064
X025079Y012056
X025079Y010072
X022092Y020030
T101
X021092Y003030
X005092Y003030
X014092Y017030
X015092Y019030
X006092Y003030
X010092Y017030
X024092Y017030
X007092Y011030
X014092Y009030
X014092Y014030
X023092Y003030
X024092Y019030
X001092Y010030
X005092Y008030
X015092Y006030
X010092Y002030
T102
X007092Y007030
X009092Y007030
X010092Y013030
X008092Y013030
X011092Y013030
X016092Y013030
X008092Y007030
X017092Y007030
X013092Y013030
X016092Y007030
X014092Y013030
X015092Y013030
X011092Y007030
X006092Y007030
X009092Y013030
X015092Y007030
X006092Y013030
X017092Y013030
X007092Y013030
X014092Y007030
X012092Y013030
X013092Y007030
X010092Y007030
X012092Y007030
T103
X026079Y011064
X025092Y001030
X020092Y001030
X018092Y001030
X022092Y001030
X007394Y017606
X025092Y020030
X016092Y001030
X015092Y001030
X023093Y020030
X020092Y020030
X006354Y018598
X010492Y020030
X026079Y012056
X023093Y001030
X008433Y018598
X007394Y018598
X021092Y001030
X024092Y001030
X008433Y017606
X009492Y020030
X016492Y020030
X013492Y020030
X008492Y020030
X019092Y020030
X015492Y020030
X018092Y020030
X012092Y001030
X011492Y020030
X021092Y020030
X006354Y017606
X007492Y020030
X014492Y020030
X012492Y020030
X017092Y001030
X014092Y001030
X024092Y020030
T104
X003092Y007392
X003305Y003030
X003092Y012392
X007092Y005030
X003092Y010817
X013092Y015817
X002518Y003030
X017092Y017392
X011092Y003455
X017092Y015030
X009092Y016605
X024092Y007030
X003092Y005030
X013092Y015030
X018092Y005030
X021092Y016605
X013092Y016605
X009092Y015030
X007092Y002667
X017092Y016605
X021092Y015817
X009092Y015817
X013092Y017392
X007092Y003455
X011092Y005030
X003092Y006605
X024092Y006242
X003092Y005817
X003092Y010030
X018092Y002667
X004092Y015817
X025092Y015030
X021092Y015030
X004092Y003030
X025092Y017392
X018092Y003455
X007092Y004242
X001730Y003030
X025092Y016605
X004092Y016605
X011092Y004242
X025092Y015817
X003092Y011605
X017092Y015817
X021092Y017392
X024092Y005455
X024092Y004668
X011092Y002667
X018092Y004242
X004092Y015030
X009092Y017392
X004092Y017392
T105
X011092Y001030
X013092Y001030
T00
M30
