G04 MADE WITH FRITZING*
G04 WWW.FRITZING.ORG*
G04 DOUBLE SIDED*
G04 HOLES PLATED*
G04 CONTOUR ON CENTER OF CONTOUR VECTOR*
%ASAXBY*%
%FSLAX23Y23*%
%MOIN*%
%OFA0B0*%
%SFA1.0B1.0*%
%ADD10C,0.049370*%
%ADD11C,0.076111*%
%ADD12C,0.076139*%
%ADD13C,0.076083*%
%ADD14C,0.076000*%
%ADD15C,0.057559*%
%LNMASK0*%
G90*
G70*
G54D10*
X609Y303D03*
X509Y303D03*
X1509Y603D03*
X1409Y903D03*
X2309Y303D03*
X2109Y303D03*
X109Y1003D03*
X709Y1103D03*
X1009Y1703D03*
X1509Y1903D03*
X1409Y1703D03*
X1409Y1403D03*
X1009Y203D03*
G54D11*
X2109Y103D03*
X2209Y103D03*
X2309Y103D03*
X2409Y103D03*
X2509Y103D03*
X1649Y2003D03*
X1549Y2003D03*
X1449Y2003D03*
X1349Y2003D03*
X1249Y2003D03*
X1149Y2003D03*
X1049Y2003D03*
X949Y2003D03*
X849Y2003D03*
X749Y2003D03*
X2509Y2003D03*
X2409Y2003D03*
X2309Y2003D03*
G54D12*
X2209Y2003D03*
G54D11*
X2109Y2003D03*
X2009Y2003D03*
X1909Y2003D03*
X1809Y2003D03*
X1209Y103D03*
G54D13*
X1109Y103D03*
X1309Y103D03*
G54D11*
X1409Y103D03*
X1509Y103D03*
X1609Y103D03*
X1709Y103D03*
X1809Y103D03*
X2009Y103D03*
X2608Y1206D03*
G54D12*
X2508Y1206D03*
G54D11*
X2608Y1106D03*
G54D12*
X2508Y1106D03*
X2608Y1007D03*
X2508Y1007D03*
G54D11*
X739Y1860D03*
X739Y1761D03*
X843Y1860D03*
X843Y1761D03*
X635Y1860D03*
X635Y1761D03*
G54D14*
X609Y703D03*
X709Y703D03*
X809Y703D03*
X909Y703D03*
X1009Y703D03*
X1109Y703D03*
X1209Y703D03*
X1309Y703D03*
X1409Y703D03*
X1509Y703D03*
X1609Y703D03*
X1709Y703D03*
X1709Y1303D03*
X1609Y1303D03*
X1509Y1303D03*
X1409Y1303D03*
X1309Y1303D03*
X1209Y1303D03*
X1109Y1303D03*
X1009Y1303D03*
X909Y1303D03*
X809Y1303D03*
X709Y1303D03*
X609Y1303D03*
G54D15*
X1809Y503D03*
X1809Y424D03*
X1809Y346D03*
X1809Y267D03*
X709Y503D03*
X709Y424D03*
X709Y346D03*
X709Y267D03*
X2409Y703D03*
X2409Y624D03*
X2409Y546D03*
X2409Y467D03*
X1109Y503D03*
X1109Y424D03*
X1109Y346D03*
X1109Y267D03*
X309Y1003D03*
X309Y1082D03*
X309Y1161D03*
X309Y1239D03*
X409Y303D03*
X331Y303D03*
X252Y303D03*
X173Y303D03*
X309Y503D03*
X309Y582D03*
X309Y661D03*
X309Y739D03*
X2109Y1503D03*
X2109Y1582D03*
X2109Y1661D03*
X2109Y1739D03*
X1709Y1503D03*
X1709Y1582D03*
X1709Y1661D03*
X1709Y1739D03*
X2509Y1503D03*
X2509Y1582D03*
X2509Y1661D03*
X2509Y1739D03*
X1309Y1503D03*
X1309Y1582D03*
X1309Y1661D03*
X1309Y1739D03*
X409Y1503D03*
X409Y1582D03*
X409Y1661D03*
X409Y1739D03*
X909Y1503D03*
X909Y1582D03*
X909Y1661D03*
X909Y1739D03*
G54D10*
X2409Y1903D03*
X2409Y1703D03*
X509Y803D03*
G04 End of Mask0*
M02*